<svg width="84" height="85" viewBox="0 0 84 85" fill="none" xmlns="http://www.w3.org/2000/svg">
<rect x="0.815534" y="1.31553" width="82.3689" height="82.3689" rx="41.1845" stroke="#52A43E" stroke-width="1.63107" stroke-dasharray="6.52 6.52"/>
<path d="M41.9994 10.8981C24.5867 10.8981 10.3975 25.0874 10.3975 42.5C10.3975 59.9127 24.5867 74.102 41.9994 74.102C59.4121 74.102 73.6013 59.9127 73.6013 42.5C73.6013 25.0874 59.4121 10.8981 41.9994 10.8981ZM57.1051 35.2316L39.1868 53.1499C38.7444 53.5923 38.144 53.8451 37.5119 53.8451C36.8799 53.8451 36.2794 53.5923 35.837 53.1499L26.8937 44.2065C25.9772 43.2901 25.9772 41.7732 26.8937 40.8567C27.8101 39.9403 29.327 39.9403 30.2435 40.8567L37.5119 48.1252L53.7553 31.8818C54.6718 30.9653 56.1887 30.9653 57.1051 31.8818C58.0216 32.7982 58.0216 34.2835 57.1051 35.2316Z" fill="#52A43E"/>
</svg>
