<svg width="134" height="103" viewBox="0 0 134 103" fill="none" xmlns="http://www.w3.org/2000/svg">
<g filter="url(#filter0_f_39_14172)">
<ellipse cx="65.5429" cy="83.0631" rx="49.1796" ry="9.4874" fill="#FFDB88" fill-opacity="0.35"/>
</g>
<path d="M66.0835 102C94.25 102 117.083 79.1665 117.083 51C117.083 22.8335 94.25 0 66.0835 0C37.917 0 15.0835 22.8335 15.0835 51C15.0835 79.1665 37.917 102 66.0835 102Z" fill="url(#paint0_linear_39_14172)"/>
<g filter="url(#filter1_d_39_14172)">
<path d="M108.804 34.5143L65.1009 65.0138L21.3975 34.5143L61.4045 6.58296C62.4895 5.82677 63.7802 5.42136 65.1027 5.42136C66.4252 5.42136 67.7159 5.82677 68.8009 6.58296L76.7813 12.162L78.8707 13.6129L99.9099 28.3041L102.126 29.8603L108.804 34.5143Z" fill="url(#paint1_linear_39_14172)"/>
</g>
<path d="M57.9947 60.0551L21.3975 86.0784V34.5143L57.9947 60.0551Z" fill="url(#paint2_linear_39_14172)"/>
<path d="M72.2104 60.0551L108.808 86.0784V34.5143L72.2104 60.0551Z" fill="url(#paint3_linear_39_14172)"/>
<path d="M21.3975 86.0785L61.3574 57.6684C62.451 56.8897 63.7602 56.4712 65.1027 56.4712C66.4453 56.4712 67.7544 56.8897 68.848 57.6684L108.804 86.0785H21.3975Z" fill="url(#paint4_linear_39_14172)"/>
<g filter="url(#filter2_d_39_14172)">
<path d="M26.0153 25.1707C19.3153 28.3048 12.1155 30.2341 4.74614 30.8701C5.7419 33.1848 12.8171 44.7715 33.8198 54.3186C34.3875 54.4059 47.5028 48.3047 54.7002 44.1207C54.4556 44.4701 32.3436 36.3337 26.0153 25.1707Z" fill="url(#paint5_linear_39_14172)"/>
</g>
<path d="M26.5337 30.9314C26.2253 30.7175 25.8348 30.6598 25.4778 30.7753L13.7555 34.5678C13.3355 34.7037 13.1859 35.2209 13.4685 35.5599C13.696 35.833 14.0684 35.9373 14.4046 35.8221L26.4261 31.7046C26.7653 31.5884 26.8283 31.1358 26.5337 30.9314Z" fill="#FFDB88"/>
<path d="M26.3306 35.6024C26.0333 35.3232 25.6065 35.2302 25.22 35.3603L17.1047 38.0914C16.7469 38.2118 16.6206 38.6533 16.8605 38.9448C17.0566 39.183 17.3796 39.2748 17.6716 39.1754L26.1848 36.2768C26.4722 36.1789 26.5519 35.8102 26.3306 35.6024Z" fill="#FFDB88"/>
<path d="M30.686 37.9154C30.3758 37.6669 29.9585 37.5981 29.5849 37.7339L20.2372 41.1313C19.8703 41.2647 19.7599 41.7301 20.0278 42.014C20.2327 42.2312 20.5474 42.3054 20.8278 42.2025L30.5698 38.6275C30.8727 38.5164 30.9378 38.117 30.686 37.9154Z" fill="#FFDB88"/>
<path d="M33.9544 44.9277C33.667 44.6101 33.2141 44.5014 32.8139 44.6541L27.4717 46.6928C27.1437 46.8179 27.0254 47.2214 27.234 47.5039C27.4294 47.7686 27.7778 47.8698 28.0846 47.751L33.8107 45.5332C34.0576 45.4376 34.132 45.1241 33.9544 44.9277Z" fill="#FFDB88"/>
<g filter="url(#filter3_d_39_14172)">
<path d="M103.463 41.329C111.587 45.1293 120.318 47.4687 129.253 48.2399C128.046 51.0467 119.467 65.0962 93.9999 76.6726C93.3115 76.7785 77.4085 69.3804 68.6812 64.3071C68.9777 64.7308 95.7899 54.8649 103.463 41.329Z" fill="url(#paint6_linear_39_14172)"/>
</g>
<path d="M102.835 48.3144C103.209 48.055 103.683 47.985 104.116 48.1251L118.33 52.7237C118.839 52.8885 119.02 53.5156 118.678 53.9267C118.402 54.2578 117.95 54.3843 117.542 54.2446L102.966 49.2519C102.554 49.111 102.478 48.5622 102.835 48.3144Z" fill="#FFDB88"/>
<path d="M98.8552 52.0998C99.2158 51.7613 99.7332 51.6485 100.202 51.8062L110.042 55.1179C110.476 55.2639 110.629 55.7993 110.338 56.1527C110.101 56.4415 109.709 56.5529 109.355 56.4323L99.032 52.9175C98.6835 52.7989 98.5869 52.3518 98.8552 52.0998Z" fill="#FFDB88"/>
<path d="M94.7654 55.2423C95.1416 54.941 95.6477 54.8576 96.1006 55.0222L107.435 59.1418C107.88 59.3035 108.014 59.8678 107.689 60.2121C107.441 60.4755 107.059 60.5654 106.719 60.4407L94.9064 56.1058C94.5392 55.9711 94.4601 55.4868 94.7654 55.2423Z" fill="#FFDB88"/>
<path d="M85.5624 61.5291C85.9109 61.144 86.46 61.0122 86.9453 61.1974L93.423 63.6694C93.8208 63.8212 93.9642 64.3104 93.7113 64.6529C93.4743 64.9739 93.0519 65.0966 92.6798 64.9525L85.7366 62.2634C85.4372 62.1474 85.347 61.7672 85.5624 61.5291Z" fill="#FFDB88"/>
<path d="M89.7908 58.1718C90.1743 57.9313 90.6474 57.8815 91.0725 58.0369L105.998 63.4942C106.475 63.6686 106.591 64.2905 106.208 64.6247C105.955 64.8457 105.602 64.9109 105.286 64.7948L89.8898 59.1231C89.4746 58.9701 89.416 58.407 89.7908 58.1718Z" fill="#FFDB88"/>
<path d="M37.1872 39.448C36.8709 39.2496 36.4808 39.2086 36.1302 39.3368L23.8211 43.8374C23.4277 43.9812 23.3324 44.4941 23.6479 44.7697C23.8565 44.952 24.148 45.0058 24.408 44.91L37.1056 40.2325C37.448 40.1064 37.4963 39.6419 37.1872 39.448Z" fill="#FFDB88"/>
<path d="M108.333 12.0044C108.333 13.1806 107.38 14.1342 106.203 14.1342C105.027 14.1342 104.074 13.1806 104.074 12.0044C104.074 10.8281 105.027 9.87453 106.203 9.87453C107.38 9.87453 108.333 10.8281 108.333 12.0044Z" stroke="url(#paint7_linear_39_14172)" stroke-width="1.16172"/>
<circle cx="30.6912" cy="91.0016" r="2.12982" stroke="url(#paint8_linear_39_14172)" stroke-width="1.16172"/>
<circle cx="96.135" cy="95.2613" r="2.12982" stroke="url(#paint9_linear_39_14172)" stroke-width="1.16172"/>
<path d="M37.9196 14.198C38.1486 13.2496 39.4976 13.2496 39.7265 14.198L40.497 17.3899C40.5788 17.7288 40.8435 17.9934 41.1824 18.0752L44.3743 18.8458C45.3227 19.0747 45.3227 20.4237 44.3743 20.6526L41.1824 21.4231C40.8435 21.505 40.5788 21.7696 40.497 22.1085L39.7265 25.3004C39.4976 26.2488 38.1486 26.2488 37.9196 25.3004L37.1491 22.1085C37.0673 21.7696 36.8027 21.505 36.4638 21.4231L33.2718 20.6526C32.3234 20.4237 32.3234 19.0747 33.2718 18.8458L36.4638 18.0752C36.8027 17.9934 37.0673 17.7288 37.1491 17.3899L37.9196 14.198Z" fill="url(#paint10_linear_39_14172)"/>
<path d="M115.513 81.5535C115.742 80.6051 117.091 80.6051 117.32 81.5535L118.09 84.7455C118.172 85.0844 118.437 85.349 118.776 85.4308L121.968 86.2013C122.916 86.4303 122.916 87.7792 121.968 88.0082L118.776 88.7787C118.437 88.8605 118.172 89.1251 118.09 89.464L117.32 92.656C117.091 93.6044 115.742 93.6044 115.513 92.656L114.742 89.464C114.661 89.1251 114.396 88.8605 114.057 88.7787L110.865 88.0082C109.917 87.7792 109.917 86.4303 110.865 86.2013L114.057 85.4308C114.396 85.349 114.661 85.0844 114.742 84.7455L115.513 81.5535Z" fill="url(#paint11_linear_39_14172)"/>
<path d="M16.5214 74.0825C17.1101 73.9882 17.5801 74.5666 17.3674 75.1235L15.9316 78.883C15.7189 79.44 14.9831 79.5578 14.6071 79.0951L12.0691 75.972C11.6931 75.5093 11.959 74.8131 12.5477 74.7188L16.5214 74.0825Z" fill="url(#paint12_linear_39_14172)"/>
<path d="M117.051 35.7583C116.904 35.1806 117.437 34.6601 118.011 34.8214L121.885 35.9101C122.459 36.0714 122.643 36.7935 122.217 37.21L119.337 40.0208C118.91 40.4372 118.192 40.2356 118.045 39.6579L117.051 35.7583Z" fill="url(#paint13_linear_39_14172)"/>
<defs>
<filter id="filter0_f_39_14172" x="6.68226" y="63.8947" width="117.721" height="38.3368" filterUnits="userSpaceOnUse" color-interpolation-filters="sRGB">
<feFlood flood-opacity="0" result="BackgroundImageFix"/>
<feBlend mode="normal" in="SourceGraphic" in2="BackgroundImageFix" result="shape"/>
<feGaussianBlur stdDeviation="4.84051" result="effect1_foregroundBlur_39_14172"/>
</filter>
<filter id="filter1_d_39_14172" x="19.8485" y="5.42136" width="90.5047" height="62.6904" filterUnits="userSpaceOnUse" color-interpolation-filters="sRGB">
<feFlood flood-opacity="0" result="BackgroundImageFix"/>
<feColorMatrix in="SourceAlpha" type="matrix" values="0 0 0 0 0 0 0 0 0 0 0 0 0 0 0 0 0 0 127 0" result="hardAlpha"/>
<feOffset dy="1.54896"/>
<feGaussianBlur stdDeviation="0.774481"/>
<feComposite in2="hardAlpha" operator="out"/>
<feColorMatrix type="matrix" values="0 0 0 0 0 0 0 0 0 0 0 0 0 0 0 0 0 0 0.25 0"/>
<feBlend mode="normal" in2="BackgroundImageFix" result="effect1_dropShadow_39_14172"/>
<feBlend mode="normal" in="SourceGraphic" in2="effect1_dropShadow_39_14172" result="shape"/>
</filter>
<filter id="filter2_d_39_14172" x="0.099205" y="22.0728" width="59.2479" height="38.4426" filterUnits="userSpaceOnUse" color-interpolation-filters="sRGB">
<feFlood flood-opacity="0" result="BackgroundImageFix"/>
<feColorMatrix in="SourceAlpha" type="matrix" values="0 0 0 0 0 0 0 0 0 0 0 0 0 0 0 0 0 0 127 0" result="hardAlpha"/>
<feOffset dy="1.54896"/>
<feGaussianBlur stdDeviation="2.32344"/>
<feComposite in2="hardAlpha" operator="out"/>
<feColorMatrix type="matrix" values="0 0 0 0 0.0196078 0 0 0 0 0.168627 0 0 0 0 0.396078 0 0 0 0.15 0"/>
<feBlend mode="normal" in2="BackgroundImageFix" result="effect1_dropShadow_39_14172"/>
<feBlend mode="normal" in="SourceGraphic" in2="effect1_dropShadow_39_14172" result="shape"/>
</filter>
<filter id="filter3_d_39_14172" x="59.7503" y="40.5546" width="73.7385" height="48.5109" filterUnits="userSpaceOnUse" color-interpolation-filters="sRGB">
<feFlood flood-opacity="0" result="BackgroundImageFix"/>
<feColorMatrix in="SourceAlpha" type="matrix" values="0 0 0 0 0 0 0 0 0 0 0 0 0 0 0 0 0 0 127 0" result="hardAlpha"/>
<feOffset dx="-2.34776" dy="5.80861"/>
<feGaussianBlur stdDeviation="3.29155"/>
<feComposite in2="hardAlpha" operator="out"/>
<feColorMatrix type="matrix" values="0 0 0 0 0.021441 0 0 0 0 0.168056 0 0 0 0 0.395833 0 0 0 0.15 0"/>
<feBlend mode="normal" in2="BackgroundImageFix" result="effect1_dropShadow_39_14172"/>
<feBlend mode="normal" in="SourceGraphic" in2="effect1_dropShadow_39_14172" result="shape"/>
</filter>
<linearGradient id="paint0_linear_39_14172" x1="65.6903" y1="-16.6069" x2="66.7351" y2="162.497" gradientUnits="userSpaceOnUse">
<stop stop-color="#FFF1CF" stop-opacity="0"/>
<stop offset="1" stop-color="#FFF1CF"/>
</linearGradient>
<linearGradient id="paint1_linear_39_14172" x1="65.1009" y1="5.42136" x2="65.1009" y2="65.0138" gradientUnits="userSpaceOnUse">
<stop stop-color="#FFF1CF"/>
<stop offset="1" stop-color="#FFF1CF"/>
</linearGradient>
<linearGradient id="paint2_linear_39_14172" x1="39.6961" y1="34.5143" x2="39.6961" y2="86.0784" gradientUnits="userSpaceOnUse">
<stop stop-color="#FFF1CF"/>
<stop offset="1" stop-color="#FFDB88"/>
</linearGradient>
<linearGradient id="paint3_linear_39_14172" x1="90.5091" y1="34.5143" x2="90.5091" y2="86.0784" gradientUnits="userSpaceOnUse">
<stop stop-color="#FFF1CF"/>
<stop offset="1" stop-color="#FFDB88"/>
</linearGradient>
<linearGradient id="paint4_linear_39_14172" x1="65.1009" y1="56.4712" x2="65.1009" y2="86.0785" gradientUnits="userSpaceOnUse">
<stop stop-color="#FFDB88"/>
<stop offset="1" stop-color="#FF9814"/>
</linearGradient>
<linearGradient id="paint5_linear_39_14172" x1="10.1675" y1="38.1432" x2="42.8894" y2="31.7538" gradientUnits="userSpaceOnUse">
<stop stop-color="#FFF1CF"/>
<stop offset="1" stop-color="#FFFCF6"/>
</linearGradient>
<linearGradient id="paint6_linear_39_14172" x1="122.68" y1="57.059" x2="83.0025" y2="49.3114" gradientUnits="userSpaceOnUse">
<stop stop-color="#FFF1CF"/>
<stop offset="1" stop-color="white"/>
</linearGradient>
<linearGradient id="paint7_linear_39_14172" x1="102.871" y1="10.3102" x2="111.342" y2="17.6516" gradientUnits="userSpaceOnUse">
<stop stop-color="#FFF1CF"/>
<stop offset="1" stop-color="#FF9814"/>
</linearGradient>
<linearGradient id="paint8_linear_39_14172" x1="27.3593" y1="89.3075" x2="35.8302" y2="96.6489" gradientUnits="userSpaceOnUse">
<stop stop-color="#FFF1CF"/>
<stop offset="1" stop-color="#FF9814"/>
</linearGradient>
<linearGradient id="paint9_linear_39_14172" x1="92.8031" y1="93.5671" x2="101.274" y2="100.909" gradientUnits="userSpaceOnUse">
<stop stop-color="#FFF1CF"/>
<stop offset="1" stop-color="#FF9814"/>
</linearGradient>
<linearGradient id="paint10_linear_39_14172" x1="38.8231" y1="10.4554" x2="38.8231" y2="29.043" gradientUnits="userSpaceOnUse">
<stop stop-color="#FF9814"/>
<stop offset="1" stop-color="#FFF1CF"/>
</linearGradient>
<linearGradient id="paint11_linear_39_14172" x1="116.416" y1="77.811" x2="116.416" y2="96.3985" gradientUnits="userSpaceOnUse">
<stop stop-color="#FF9814"/>
<stop offset="1" stop-color="#FFF1CF"/>
</linearGradient>
<linearGradient id="paint12_linear_39_14172" x1="17.846" y1="73.8704" x2="11.8355" y2="78.7546" gradientUnits="userSpaceOnUse">
<stop stop-color="#FF9814"/>
<stop offset="1" stop-color="#FFF1CF"/>
</linearGradient>
<linearGradient id="paint13_linear_39_14172" x1="116.72" y1="34.4585" x2="122.129" y2="40.001" gradientUnits="userSpaceOnUse">
<stop stop-color="#FF9814"/>
<stop offset="1" stop-color="#FFF1CF"/>
</linearGradient>
</defs>
</svg>
